<svg width="40" height="40" viewBox="0 0 40 40" fill="none" xmlns="http://www.w3.org/2000/svg">
<path d="M26.7727 20L38.5966 8.17702C40.4675 6.30615 40.4675 3.27329 38.5966 1.40338C36.7277 -0.466532 33.6929 -0.466532 31.8239 1.40338L20 13.2283L8.17607 1.40338C6.30712 -0.466532 3.27235 -0.466532 1.4034 1.40338C-0.467473 3.27425 -0.467473 6.30711 1.4034 8.17702L13.2264 20L1.4034 31.823C-0.467473 33.6938 -0.467473 36.7267 1.4034 38.5966C2.33739 39.5325 3.56452 39.999 4.78974 39.999C6.01399 39.999 7.24208 39.5325 8.17607 38.5966L20 26.7736L31.8239 38.5976C32.7589 39.5335 33.9851 40 35.2103 40C36.4355 40 37.6626 39.5335 38.5966 38.5976C40.4675 36.7267 40.4675 33.6938 38.5966 31.8239L26.7727 20Z" fill="#3D2311"/>
</svg>
